<svg xmlns="http://www.w3.org/2000/svg" width="16" height="38" fill="none" viewBox="0 0 16 38"><style type="text/css">.left{animation:pattern 5s infinite linear}.right{animation:pattern 5s infinite linear reverse}</style><g clip-path="url(#clip0_116_185)"><path fill="#000" fill-rule="evenodd" d="M26.6701 29.7876H16L21.3299 20.4852H32L26.6701 29.7876ZM21.3299 39.0899L16 29.7876H26.6701L32 39.0899H21.3299Z" class="left" clip-rule="evenodd"/><path fill="#000" fill-rule="evenodd" d="M21.3299 9.24262H32L26.6701 0H16L21.3299 9.24262ZM26.6701 18.4853L32 9.24268H21.3299L16 18.4853H26.6701Z" class="right" clip-rule="evenodd"/><path fill="#000" fill-rule="evenodd" d="M10.6701 29.7876H0L5.32991 20.4852H16L10.6701 29.7876ZM5.32991 39.0899L0 29.7876H10.6701L16 39.0899H5.32991Z" class="left" clip-rule="evenodd"/><path fill="#000" fill-rule="evenodd" d="M5.32991 9.24262H16L10.6701 0H0L5.32991 9.24262ZM10.6701 18.4853L16 9.24268H5.32991L0 18.4853H10.6701Z" class="right" clip-rule="evenodd"/></g><defs><clipPath id="clip0_116_185"><rect width="16" height="37.09" fill="#fff"/></clipPath></defs></svg>