<svg width="16" height="38" viewBox="0 0 16 38" fill="none" xmlns="http://www.w3.org/2000/svg">
    <style type="text/css">
        .left {
            animation: pattern 5s infinite linear;
        }

        .right {
            animation: pattern 5s infinite linear reverse;
        }

        @keyframes pattern {
            from { transform: translateX(0) }
            to { transform: translateX(-100%) }
        }
    </style>
    
    <g clip-path="url(#clip0_116_185)">
        <path class="left" fill-rule="evenodd" clip-rule="evenodd" d="M26.6701 29.7876H16L21.3299 20.4852H32L26.6701 29.7876ZM21.3299 39.0899L16 29.7876H26.6701L32 39.0899H21.3299Z" fill="black"/>
        <path class="right" fill-rule="evenodd" clip-rule="evenodd" d="M21.3299 9.24262H32L26.6701 0H16L21.3299 9.24262ZM26.6701 18.4853L32 9.24268H21.3299L16 18.4853H26.6701Z" fill="black"/>
        <path class="left" fill-rule="evenodd" clip-rule="evenodd" d="M10.6701 29.7876H0L5.32991 20.4852H16L10.6701 29.7876ZM5.32991 39.0899L0 29.7876H10.6701L16 39.0899H5.32991Z" fill="black"/>
        <path class="right" fill-rule="evenodd" clip-rule="evenodd" d="M5.32991 9.24262H16L10.6701 0H0L5.32991 9.24262ZM10.6701 18.4853L16 9.24268H5.32991L0 18.4853H10.6701Z" fill="black"/>
    </g>

    <defs>
        <clipPath id="clip0_116_185">
            <rect width="16" height="37.0899" fill="white"/>
        </clipPath>
    </defs>
</svg>
